<svg xmlns="http://www.w3.org/2000/svg" enable-background="new 0 0 52 52" viewBox="0 0 52 52"><path fill="#2FCBFF" d="M50.00134,22.48775c0,3.56-2.88995,6.44-6.44,6.44h-35.12c-3.56,0-6.44-2.88-6.44-6.44
					c0-3.54999,2.88-6.44,6.44-6.44c0.20001,0,0.40002,0.01001,0.59003,0.03003c0.75-3.20001,3.63-5.58002,7.06-5.58002
					c0.15997,0,0.32001,0.01001,0.46997,0.03003c0.49005-4.79004,4.53003-8.53003,9.44-8.53003
					c4.91003,0,8.95001,3.73999,9.44,8.53003c0.15002-0.02002,0.31-0.03003,0.47003-0.03003c3.42999,0,6.29999,2.38,7.04999,5.58002
					c0.20001-0.02002,0.40002-0.03003,0.59998-0.03003C47.11139,16.04774,50.00134,18.93776,50.00134,22.48775z"/><path d="M50.00134,22.48775c0,3.56-2.88995,6.44-6.44,6.44h-35.12c-3.07001,0-5.63995-2.13995-6.27997-5.01996
					c1.01001,0.66998,2.21997,1.06,3.52997,1.06h35.12c3.55005,0,6.44-2.88,6.44-6.44c0-0.48999-0.04999-0.96002-0.15997-1.41998
					C48.84137,18.25776,50.00134,20.23775,50.00134,22.48775z" opacity=".05"/><path fill="#F6C560" d="M29.13378,46.63208c0.12797,1.81714-1.30525,3.36986-3.13088,3.36991s-3.26735-1.5526-3.13081-3.36975
							l0.9556-13.08683l4.35077-0.00011L29.13378,46.63208z"/><path d="M26.00181,50.00204c-0.64352,0-1.24035-0.19202-1.73335-0.52936c1.76452-0.06228,3.13459-1.58808,3.00484-3.3578
							l-0.9134-12.56956l1.81641-0.00001l0.95492,13.08857C29.26097,48.4451,27.8286,50.00203,26.00181,50.00204z" opacity=".05"/><path fill="#C7C7C7" d="M30.08674,29.25631l-0.00008,7.23915c-0.00001,0.50272-0.4022,0.90487-0.9049,0.90488l-6.3542,0.00016
							c-0.5027,0.00002-0.91489-0.40211-0.91489-0.90483l0.00008-7.23915L30.08674,29.25631z"/><circle cx="26" cy="22.807" r="10.717" fill="#E4F1FF"/><path d="M36.72137,22.80775c0,5.92004-4.79999,10.71002-10.72003,10.71002c-4.58997,0-8.50995-2.88001-10.03998-6.94
						c1.96002,2.40997,4.96002,3.95001,8.31,3.95001c5.91998,0,10.71002-4.79999,10.71002-10.72003
						c0-1.33997-0.23999-2.62-0.69-3.79999C35.81134,17.8578,36.72137,20.2278,36.72137,22.80775z" opacity=".05"/><path fill="#293C66" d="M43.70313,15.04908c-1.08887-3.18555-4.00195-5.38525-7.40332-5.54248
					C35.3623,4.59547,31.08594,0.99781,26,0.99781c-5.08691,0-9.36328,3.59766-10.30078,8.50879
					c-3.40625,0.15723-6.32324,2.35693-7.41309,5.54248C4.25391,15.13111,1,18.43629,1,22.48756
					c0,4.10254,3.33691,7.44043,7.43945,7.44043h8.26965c1.08006,1.4025,2.39914,2.55089,4.20398,3.42267v3.1452
					c0,0.92981,0.67371,1.70331,1.56049,1.8692L21.875,46.55689c-0.17945,2.38482,1.71146,4.44531,4.12793,4.44531
					c2.41584-0.00103,4.29637-2.05637,4.12793-4.44287l-0.59802-8.19464c0.88312-0.16553,1.55408-0.93927,1.55408-1.86932v-3.15173
					c1.65204-0.80054,3.08612-1.97369,4.19531-3.41565h8.27734C47.66211,29.92799,51,26.5901,51,22.48756
					C51,18.43336,47.74022,15.12574,43.70313,15.04908z M23.86914,46.70484l0.60687-8.30432l3.0545-0.00024l0.6062,8.30212
					C28.34569,49.70335,23.64379,49.71273,23.86914,46.70484z M29.08691,36.40015l-6.17383,0.00049v-2.30078
					c0.9953,0.27026,2.0296,0.4209,3.08887,0.4209h0.00098c1.06873,0,2.09955-0.15619,3.08398-0.4256V36.40015z M26.00293,32.52076
					c-5.36938,0-9.7207-4.33991-9.7207-9.71338c0-5.35645,4.36035-9.71436,9.7207-9.71436
					c5.38254,0,9.71387,4.35265,9.71387,9.71338C35.7168,28.16285,31.35938,32.52076,26.00293,32.52076z M43.55957,27.92799h-7.0379
					c0.75769-1.54968,1.19513-3.28345,1.19513-5.12158c0-6.47636-5.23603-11.71338-11.71289-11.71338h-0.00098
					c-6.46289,0-11.7207,5.25488-11.7207,11.71436c0,1.80597,0.41815,3.54382,1.18701,5.12061H8.43945
					C5.44043,27.92799,3,25.48756,3,22.48756c0-2.99951,2.44043-5.43994,5.43945-5.43994c0.16406,0,0.3291,0.0083,0.48438,0.0249
					c0.50586,0.0459,0.96484-0.27588,1.0791-0.7666c0.66309-2.83105,3.16602-4.80811,6.08691-4.80811
					c0.11523,0,0.22949,0.00684,0.33789,0.021c0.26758,0.03369,0.54004-0.03906,0.75098-0.20605
					c0.21289-0.16797,0.34766-0.41406,0.37598-0.68311C18,6.27857,21.63086,2.99781,26,2.99781s7.99902,3.28076,8.44434,7.63184
					c0.02832,0.26904,0.16309,0.51514,0.37598,0.68311c0.21191,0.16699,0.4834,0.23975,0.75098,0.20605
					c0.1084-0.01416,0.22363-0.021,0.33789-0.021c2.91504,0,5.41406,1.97705,6.07715,4.80811
					c0.11426,0.48877,0.58203,0.81787,1.07324,0.76709c0.16602-0.0166,0.33301-0.02539,0.5-0.02539
					c3,0,5.44043,2.44043,5.44043,5.43994C49,25.48756,46.55957,27.92799,43.55957,27.92799z"/><g><path fill="#FF5975" d="M19.97949 25.32887v-1.52588H17.375v-.5l2.50098-3.57813h.81836v3.4834h.78516v.59473h-.78516v1.52588H19.97949zM19.97949 23.20826v-1.87109c0-.29297.00781-.58594.02539-.87939h-.02539c-.17285.32764-.31055.56934-.46582.82764l-1.37109 1.90527v.01758H19.97949zM25.78027 22.46656c0 1.90527-.70703 2.95703-1.94824 2.95703-1.09473 0-1.83691-1.02588-1.85352-2.87939 0-1.87939.81055-2.91406 1.94824-2.91406C25.10742 19.63013 25.78027 20.68189 25.78027 22.46656zM22.7373 22.55299c0 1.45703.44824 2.28467 1.1377 2.28467.77637 0 1.14648-.90527 1.14648-2.33643 0-1.37939-.35352-2.28467-1.1377-2.28467C23.21973 20.21656 22.7373 21.02711 22.7373 22.55299zM28.82324 25.32887v-1.52588h-2.60449v-.5l2.50098-3.57813h.81836v3.4834h.78516v.59473h-.78516v1.52588H28.82324zM28.82324 23.20826v-1.87109c0-.29297.00781-.58594.02539-.87939h-.02539c-.17285.32764-.31055.56934-.46582.82764l-1.37109 1.90527v.01758H28.82324z"/></g></svg>